<svg viewBox="0 0 67.7 67.7"><rect width="63.5" height="63.5" x="2.1" y="3.5" fill="#6f2a2a" stroke="#6f2a2a" stroke-width="1.5" ry="9.6"/><rect width="63.5" height="63.5" x="2.1" y=".7" fill="#813131" stroke="#a63f3f" stroke-width="1.5" ry="9.6"/><g transform="translate(23.5 31.6)scale(1.23078)"><ellipse cx="26.1" cy="13.5" fill="#755757" rx="4.8" ry="10"/><path fill="#755757" d="M26.1 3.5v20l-16.9-.7V4.1Z"/><ellipse cx="9.2" cy="13.5" fill="#674c4c" stroke="#584141" stroke-width=".9" rx="4.3" ry="8.9"/><path fill="none" stroke="#584141" stroke-linecap="round" d="M14.1 19.8c1-2.4 1-5 .9-7.3m1 7.6q.7-1.9.7-3.7m0-1.7a7 7 0 0 0 0-2.4m11.3 8q1.7-4.1 1.1-7.5"/></g><path fill="none" stroke="#674c4c" stroke-width="1.6" d="M33.9 46.7S23.2 58 8.7 51c-7-3.3-7-15-1.8-18.6 15.2-10.3 32 6.6 45.3 4.9C62.9 36 71 22.7 60 13.2c-7.2-6.1-26.7 3-26.7 3"/><g transform="translate(.3 .8)scale(1.20674)"><ellipse cx="26.4" cy="13.5" fill="#755757" rx="4.4" ry="9.3"/><path fill="#745858" d="M26.4 4.1 9 3.5v20l17.5-.7Z"/><ellipse cx="8.9" cy="13.5" fill="#2c2121" stroke="#584141" stroke-width=".9" rx="4.5" ry="9.5"/><path fill="none" stroke="#584141" stroke-linecap="round" d="M14.2 20q1.7-4 1-8.5m1.2 9a9 9 0 0 0 1.1-4m0-2q.2-1.2 0-2.4m10.7 8q1.5-3.7 1-7.3M27.4 15q.2-1.3.1-2.3"/></g></svg>